<?xml version="1.0" encoding="utf-8"?>
<!-- Generator: Adobe Illustrator 21.1.0, SVG Export Plug-In . SVG Version: 6.00 Build 0)  -->
<svg version="1.1" id="Layer_1" xmlns="http://www.w3.org/2000/svg"  x="0px" y="0px"
	 width="44px" height="44px" viewBox="0 0 44 44" enable-background="new 0 0 44 44" xml:space="preserve">
<path fill="#070707" d="M32.354,31.646c0.195,0.195,0.195,0.512,0,0.707C32.256,32.451,32.128,32.5,32,32.5
	s-0.256-0.049-0.354-0.146L22,22.707l-9.646,9.646C12.256,32.451,12.128,32.5,12,32.5s-0.256-0.049-0.354-0.146
	c-0.195-0.195-0.195-0.512,0-0.707L21.293,22l-9.646-9.646c-0.195-0.195-0.195-0.512,0-0.707s0.512-0.195,0.707,0L22,21.293
	l9.646-9.646c0.195-0.195,0.512-0.195,0.707,0s0.195,0.512,0,0.707L22.707,22L32.354,31.646z"/>
</svg>
