<?xml version="1.0" encoding="utf-8"?>
<!-- Generator: Adobe Illustrator 19.0.0, SVG Export Plug-In . SVG Version: 6.00 Build 0)  -->
<svg version="1.1" id="Слой_1" xmlns="http://www.w3.org/2000/svg" xmlns:xlink="http://www.w3.org/1999/xlink" x="0px" y="0px"
	 viewBox="0 0 575.6 119.3" style="enable-background:new 0 0 575.6 119.3;" xml:space="preserve">
<path d="M348.2,70.7c-0.4-0.3-0.8-0.6-1.2-0.8c-2.5-1.5-3.7-3.7-3.5-6.7c0.2-1.9,1.7-3.5,3.5-3.8s3.6,0.6,4.3,2.3
	c0.7,1.6,0.3,3.5-1.2,4.6c-0.5,0.4-1.1,0.6-1.7,0.9c0.8,1.2,2.3,1.6,4.1,1.1c1.7-0.5,3-1.6,3.7-3.1c1.2-2.6,2.3-5.2,3.3-7.9
	c0.2-0.5,0.1-1.3-0.1-1.9c-3.7-10-7.4-20.1-11.2-30.1c-0.2-0.6-0.5-1.1-0.7-1.6c-0.8-1.9-2.1-3.1-4.2-3.3c-0.4,0-0.9-0.7-0.9-1.1
	s0.7-1,1-1c4.9-0.1,9.8-0.1,14.7,0c0.4,0,1,0.7,1,1c0,0.4-0.6,1-1,1c-3.9,0.4-4.4,1.2-3,4.9c2.5,6.5,5,13,7.5,19.5
	c0.2,0.5,0.5,1.1,0.9,1.9c0.3-0.7,0.6-1.1,0.7-1.5c2.3-6.3,4.5-12.5,6.8-18.8c0.1-0.3,0.2-0.6,0.3-0.9c1.1-3.6,0.2-5-3.6-5.1
	c-0.8,0-1.5,0-1.5-1.1s0.7-1,1.4-1c3.5,0,7,0,10.5,0c0.7,0,1.3,0,1.4,0.9c0,0.8-0.2,1.2-1.1,1.3c-1.6,0.2-2.5,1.3-3,2.6
	c-1.5,3.7-2.9,7.5-4.3,11.2c-3.3,8.9-6.6,17.8-10,26.7c-0.9,2.2-1.9,4.4-3.3,6.4c-1,1.4-2.7,2.3-4,3.4
	C351.8,70.7,350,70.7,348.2,70.7z M483.3,24c2.2-3.9,5.1-6.5,9.8-6.4c4.9,0.1,7.4,3.1,9.2,7.5c0.8-1.2,1.3-2.1,2-3
	c3.1-4.3,8.1-5.7,12.7-3.5c3.8,1.8,5.4,5.1,5.6,9.1c0.2,6.8,0.2,13.6,0.3,20.4c0,0.9,0.1,1.8,0.3,2.7c0.4,2.2,1,2.7,3.3,3
	c0.3,0,0.7,0,0.9,0.2c0.3,0.3,0.7,0.8,0.7,1.1s-0.6,0.8-0.9,0.8c-3.3,0.1-6.5,0-9.8,0c-1.2,0-1-0.8-1-1.6c0-7.9,0-15.8,0-23.7
	c0-1.9-0.2-3.9-0.6-5.8c-0.9-4.1-5.4-5.5-8.5-2.8c-2.2,1.9-3.5,4.5-3.6,7.4c-0.3,6.4-0.3,12.9-0.3,19.4c0,0.8,0.2,1.6,0.3,2.4
	c0.3,1.6,1.2,2.4,2.9,2.6c0.5,0.1,1.1,0,1.5,0.2c0.3,0.2,0.6,0.7,0.7,1.1c0,0.3-0.5,0.8-0.8,0.8c-3.4,0.1-6.7,0.1-10.1,0
	c-0.3,0-0.8-0.6-0.9-1c-0.2-0.7,0-1.4-0.1-2.1c-0.1-8.1-0.1-16.2-0.2-24.3c0-1.3-0.3-2.7-0.7-4c-1.4-4.2-6-5.2-9.1-1.9
	c-1.9,2.1-3,4.7-3.1,7.5c-0.2,6-0.2,11.9-0.3,17.9c0,1,0.1,2.1,0.3,3.1c0.3,1.8,1.1,2.5,2.9,2.7c0.4,0,0.9,0,1.2,0.2
	c0.4,0.3,0.7,0.8,1,1.2c-0.4,0.3-0.8,0.8-1.2,0.8c-3.9,0.1-7.8,0-11.7,0c-1.2,0-2.3,0.1-3.5,0c-0.4,0-0.7-0.5-1.1-0.8
	c0.3-0.4,0.6-0.8,1-1.1c0.2-0.2,0.6-0.1,0.9-0.2c2.4-0.3,3.4-1.2,3.4-3.5c0.1-8.7,0.1-17.4,0-26.1c0-2.4-1.1-3.3-3.6-3.6
	c-0.8-0.1-1.3-0.2-1.3-1.2c0-1.1,0.7-1,1.5-1c2.7-0.1,5.4-0.2,8.1-0.3c1.1-0.1,1.5,0.3,1.5,1.5c-0.1,1.5,0,3,0,4.6
	C483,24,483.1,24,483.3,24z M31.1,24c2.2-3.9,5.1-6.5,9.8-6.4c4.9,0.1,7.4,3.1,9.2,7.5c0.8-1.2,1.3-2.1,2-3
	c3.1-4.3,8.1-5.7,12.7-3.5c3.8,1.8,5.4,5.1,5.6,9.1c0.2,6.8,0.2,13.6,0.3,20.4c0,0.9,0.1,1.8,0.3,2.7c0.4,2.2,1,2.7,3.3,3
	c0.3,0,0.7,0,0.9,0.2c0.3,0.3,0.7,0.8,0.7,1.1s-0.6,0.8-0.9,0.8c-3.3,0.1-6.5,0-9.8,0c-1.2,0-1-0.8-1-1.6c0-7.9,0-15.8,0-23.7
	c0-1.9-0.2-3.9-0.6-5.8c-0.9-4.1-5.4-5.5-8.5-2.8c-2.2,1.9-3.5,4.5-3.6,7.4C51,35.8,51,42.3,50.9,48.8c0,0.8,0.2,1.6,0.3,2.4
	c0.3,1.6,1.2,2.4,2.9,2.6c0.5,0.1,1.1,0,1.5,0.2c0.3,0.2,0.6,0.7,0.7,1.1c0,0.3-0.5,0.8-0.8,0.8c-3.4,0.1-6.7,0.1-10.1,0
	c-0.3,0-0.8-0.6-0.9-1c-0.2-0.7,0-1.4-0.1-2.1c-0.1-8.1-0.1-16.2-0.2-24.3c0-1.3-0.3-2.7-0.7-4c-1.4-4.2-6-5.2-9.1-1.9
	c-1.9,2.1-3,4.7-3.1,7.5C31.1,36.1,31.1,42,31,48c0,1,0.1,2.1,0.3,3.1c0.3,1.8,1.1,2.5,2.9,2.7c0.4,0,0.9,0,1.2,0.2
	c0.4,0.3,0.7,0.8,1,1.2C36,55.5,35.6,56,35.2,56c-3.9,0.1-7.8,0-11.7,0c-1.2,0-2.3,0.1-3.5,0c-0.4,0-0.7-0.5-1.1-0.8
	c0.3-0.4,0.6-0.8,1-1.1c0.2-0.2,0.6-0.1,0.9-0.2c2.4-0.3,3.4-1.2,3.4-3.5c0.1-8.7,0.1-17.4,0-26.1c0-2.4-1.1-3.3-3.6-3.6
	c-0.8-0.1-1.3-0.2-1.3-1.2c0-1.1,0.7-1,1.5-1c2.7-0.1,5.4-0.2,8.1-0.3c1.1-0.1,1.5,0.3,1.5,1.5c-0.1,1.5,0,3,0,4.6
	C30.7,24,30.9,24,31.1,24z M133.9,26c0,6.1,0,12.2,0,18.3c0,1.8,0.1,3.6,0.3,5.4c0.2,2.4,1.8,3.7,4.7,4c0.7,0.1,1.4-0.1,2.1,0.1
	c0.4,0.1,1,0.6,1.1,1c0.2,0.8-0.3,1.1-1.1,1.1c-7.2,0-14.4,0-21.6,0c-0.8,0-1.2-0.3-1.2-1.1c0-0.9,0.5-1.1,1.3-1.1
	c1.1,0,2.3,0,3.4-0.3c2-0.5,3-1.6,3.2-3.6c0.2-1.6,0.3-3.3,0.3-4.9c0-13.1,0-26.1,0-39.2c0-2.1,0-2.1-2.1-2.1
	c-7.2,0-12.2,4.4-13.4,12.2c-0.2,1.2-0.3,2.4-0.6,3.5c-0.1,0.4-0.8,0.8-1.3,0.8c-0.3,0-0.9-0.7-0.9-1c0.1-5.4,0.2-10.7,0.3-16.1
	c0-1.2,0.5-1.6,1.8-1.6c13.4,0,26.8,0,40.3,0c1.2,0,1.7,0.4,1.7,1.6c0,5.3,0.2,10.5,0.3,15.8c0,0.7,0,1.3-0.9,1.4
	c-0.8,0-1.2-0.2-1.4-1.1c-0.7-2.8-1.3-5.7-2.4-8.3C145,5,140.6,3.4,135,3.6c-1.2,0-1.1,0.8-1.1,1.6c0,4.3,0,8.5,0,12.8
	C133.9,20.6,133.9,23.3,133.9,26z M305.6,46.2c0-2.8,0-5.5,0-8.3c0-0.5,0.5-1.2,0.9-1.4c0.8-0.3,1.4,0.2,1.6,1.1
	c0.9,4.4,2.2,8.6,5.1,12.2c3.2,3.9,7.4,5.5,12.3,4.7c6-1,8.5-6.2,8.3-11.5c-0.3-5.1-3-8.3-7.7-10c-3.1-1.1-6.1-2.2-9.2-3.3
	c-4.1-1.6-7.7-3.8-9.5-8c-3.1-7.5-0.9-18,8.6-21c3.9-1.2,7.9-0.9,11.7,1c0.9,0.5,1.7,1,2.6,1.5c1.9,1,2.6,0.8,4-0.9
	c0.4-0.5,1.2-0.7,1.8-1c0.2,0.6,0.6,1.2,0.6,1.8c0.1,4.8,0.1,9.5,0,14.3c0,0.5-0.4,1.3-0.7,1.4c-0.9,0.3-1.2-0.3-1.5-1.2
	c-1-3.1-1.9-6.2-3.4-9.1c-1.9-3.6-5-5.8-9.2-6.1c-5.1-0.4-9.7,3-10,8.5c-0.3,5.1,1.7,8.3,6.4,10.2c3.8,1.6,7.7,3,11.6,4.6
	c4.7,2,8.3,5.1,9.5,10.3c1.5,7.1-0.3,13.2-5.9,18c-4.7,4-12.2,4.4-17.8,1.1c-0.9-0.5-1.7-1.1-2.6-1.5c-1.8-1-3.2-0.7-4.4,1.1
	c-0.2,0.2-0.3,0.7-0.5,0.7c-0.6,0.2-1.3,0.4-1.9,0.4c-0.2,0-0.5-0.8-0.5-1.2C305.6,51.8,305.6,49,305.6,46.2z M465.6,46
	c0.6,0.3,1.2,0.6,1.9,1c-2.6,5.1-6,9.2-11.9,10c-5.7,0.7-10.4-1.2-13.8-6c-2.3-3.3-3.3-7-3.5-10.9c-0.3-4.2-0.2-8.4,1.4-12.4
	c1.7-4.2,4.2-7.8,8.6-9.6c5.6-2.3,11.9-0.4,15.5,4.6c2.7,3.7,3.8,8,4.3,12.5c0.1,1.2-0.4,1.5-1.5,1.5c-6.3,0-12.5,0-18.8,0
	c-2.2,0-2.4,0-2.2,2.3c0.3,3.1,0.6,6.2,1.4,9.1c0.9,3.3,3.2,5.7,6.8,6.2c3.7,0.5,6.7-0.8,9-3.8C463.7,49.1,464.6,47.6,465.6,46z
	 M460.7,34.1c0.2-3.7-0.1-7.2-1.8-10.5c-1.2-2.3-2.9-3.9-5.6-3.9c-2.8,0-4.5,1.7-5.7,4c-1.4,2.9-1.9,6-2.1,9.1
	c-0.1,1.2,0.4,1.4,1.5,1.4c4.2,0,8.4,0,12.6,0C459.9,34.2,460.2,34.1,460.7,34.1z M382.6,49.1c0-1.8-0.1-3.6,0-5.4
	c0-0.5,0.4-1.2,0.7-1.3c0.7-0.3,1.2,0.1,1.5,1c1,2.4,1.9,4.9,3.4,7.1c1.7,2.7,4.6,4,7.8,4.1c3.4,0.2,6-1.6,7-4.7c1-3,0.1-6.4-2.8-8
	c-2.3-1.3-5-2-7.4-3.2c-2.2-1-4.4-1.9-6.3-3.3c-3.5-2.6-4.2-7-2.9-11.2c1.1-3.7,5-6.4,9-6.6c3.2-0.2,6.3,0.4,9.1,2.1
	c1.1,0.6,1.9,0.6,2.6-0.7c0.2-0.4,1-0.6,1.5-0.7c0.2,0,0.6,0.8,0.6,1.2c0.1,3.1,0.1,6.1,0,9.2c0,0.4-0.6,0.8-0.9,1.2
	c-0.4-0.3-1.1-0.6-1.3-1c-0.9-1.9-1.4-4-2.5-5.7c-1.9-3-4.8-4.1-8.3-3.7c-2.8,0.3-4.9,2.4-5.3,5.3c-0.4,2.3,0.9,4.7,3.4,5.8
	c3.1,1.3,6.4,2.3,9.5,3.6c5.2,2.1,7.8,5.9,7.7,11c-0.1,6.5-5.2,11.4-11.6,11.5c-3.3,0.1-6.3-0.9-9.1-2.6c-1.9-1.2-2-1.1-3.2,0.9
	c-0.3,0.4-1,0.7-1.5,0.7c-0.2,0-0.7-0.8-0.7-1.3C382.5,52.7,382.6,50.9,382.6,49.1z M532.4,49c0-1.8-0.1-3.5,0-5.3
	c0-0.5,0.4-1.2,0.8-1.4c0.9-0.3,1.1,0.5,1.4,1.1c1.1,2.5,2,5.2,3.6,7.3c2.3,3.1,5.7,4.3,9.6,3.5c2.7-0.5,4.3-2.3,5-4.8
	c0.7-2.6,0.3-5.2-2-6.9c-1.4-1.1-3.2-1.9-4.8-2.6c-2.6-1.1-5.3-1.9-7.8-3.1c-4.2-2.1-6.2-6.3-5.4-10.9c0.6-4.2,3.9-7.5,8.5-8.2
	c3.3-0.5,6.6,0,9.6,1.7c1.9,1.1,1.8,1,3.2-0.6c0.3-0.4,1.1-0.5,1.6-0.4c0.2,0,0.6,0.7,0.6,1.1c0.1,3,0,5.9,0,8.9
	c0,0.7,0.4,1.6-0.9,1.7c-1.1,0.1-1.3-0.5-1.6-1.4c-0.6-1.8-1.3-3.7-2.3-5.3c-2-3.3-6-4.6-9.6-3.5c-2.2,0.7-3.8,2.7-4,4.9
	c-0.3,2.6,0.7,4.6,3,5.7c3.1,1.4,6.3,2.4,9.5,3.7c1.3,0.5,2.7,1.2,3.8,2.1c3.9,3,5.2,7.8,3.6,12.7c-1.5,4.6-5.7,7.7-10.5,7.9
	c-3.5,0.2-6.7-0.8-9.7-2.7c-1.8-1.1-2-1-3.1,0.9c-0.3,0.4-1,0.7-1.5,0.8c-0.2,0-0.6-0.8-0.7-1.2C532.4,52.7,532.4,50.9,532.4,49z
	 M422.9,18.3c3.2,0,6.2,0,9.1,0c0.8,0,2-0.5,2,1.2c0,1.6-1.1,1.2-2,1.3c-2.6,0-5.2,0-7.8,0c-1,0-1.4,0.3-1.4,1.4
	c0,8.3,0,16.6,0.1,24.9c0,1.2,0.3,2.5,0.6,3.7c0.5,1.9,1.8,2.9,3.5,3c2,0.2,3.7-0.5,4.4-2.4c0.7-2,1-4.2,1.3-6.4
	c0.1-0.9,0.2-1.5,1.3-1.5c1.1,0,1.3,0.6,1.1,1.5c-0.2,1.8-0.3,3.7-0.8,5.5c-1.5,5.5-5.7,7.1-10.9,6.3c-4.4-0.7-6.9-3.6-7-8
	c-0.2-8.7-0.2-17.3-0.3-26c0-1.5-0.4-2.1-1.9-1.9c-0.9,0.1-1.8,0.1-2.7,0c-0.5-0.1-1.2-0.3-1.3-0.7c-0.3-0.8,0.2-1.2,1-1.5
	c1.4-0.5,2.8-1,4.1-1.8c3.4-2.1,4.2-5.6,5-9.2c0.1-0.7,0.3-1.4,0.3-2.1c0-0.8,0.1-1.4,1.1-1.4c1.2,0,1.1,0.8,1.1,1.5
	c0,3.6,0,7.2,0,10.8C422.9,17,422.9,17.5,422.9,18.3z M266,31.1c0,1.1,0,2.3,0,3.4c0,0.9-0.3,1.3-1.2,1.2c-2.2,0-4.5,0-6.7,0
	c-0.9,0-1.2-0.4-1.2-1.2c0-2.3,0-4.6,0-6.9c0-0.9,0.3-1.3,1.2-1.2c2.2,0,4.5,0,6.7,0c0.9,0,1.2,0.4,1.2,1.2
	C266,28.8,266,29.9,266,31.1z M287,30.9c0-1.1,0-2.2,0-3.3c0-0.9,0.2-1.3,1.2-1.3c2.2,0,4.5,0,6.8,0c0.9,0,1.3,0.3,1.3,1.2
	c0,2.3,0,4.6,0,6.9c0,0.9-0.3,1.3-1.2,1.3c-2.2,0-4.5,0-6.8,0c-0.9,0-1.3-0.3-1.2-1.2C287,33.3,287,32.1,287,30.9z M235.8,31.1
	c0,1.1,0,2.3,0,3.4c0,0.9-0.3,1.3-1.2,1.2c-2.2,0-4.5,0-6.7,0c-0.9,0-1.2-0.4-1.2-1.2c0-2.3,0-4.6,0-6.9c0-0.9,0.3-1.3,1.2-1.2
	c2.2,0,4.5,0,6.7,0c0.9,0,1.2,0.4,1.2,1.2C235.8,28.8,235.8,29.9,235.8,31.1z M575.6,31.2c0,1.1,0,2.3,0,3.4c0,0.8-0.3,1.1-1.2,1.1
	c-2.2,0-4.5,0-6.7,0c-0.9,0-1.3-0.3-1.3-1.2c0-2.3,0-4.7,0-7c0-0.8,0.4-1.1,1.2-1.1c2.3,0,4.6,0,6.9,0c0.9,0,1.1,0.4,1.1,1.2
	C575.6,28.8,575.6,30,575.6,31.2z M9.2,31.2c0,1.1,0,2.3,0,3.4c0,0.8-0.3,1.1-1.2,1.1c-2.2,0-4.5,0-6.7,0c-0.9,0-1.3-0.3-1.3-1.2
	c0-2.3,0-4.7,0-7c0-0.8,0.4-1.1,1.2-1.1c2.3,0,4.6,0,6.9,0c0.9,0,1.1,0.4,1.1,1.2C9.2,28.8,9.2,30,9.2,31.2z M104.4,46
	c0.6,0.3,1.2,0.6,1.9,1c-2.6,5.1-6,9.2-11.9,10c-5.7,0.7-10.4-1.2-13.8-6c-2.3-3.3-3.3-7-3.5-10.9c-0.3-4.2-0.2-8.4,1.4-12.4
	c1.7-4.2,4.2-7.8,8.6-9.6c5.6-2.3,11.9-0.4,15.5,4.6c2.7,3.7,3.8,8,4.3,12.5c0.1,1.2-0.4,1.5-1.5,1.5c-6.3,0-12.5,0-18.8,0
	c-2.2,0-2.4,0-2.2,2.3c0.3,3.1,0.6,6.2,1.4,9.1c0.9,3.3,3.2,5.7,6.8,6.2c3.7,0.5,6.7-0.8,9-3.8C102.5,49.1,103.3,47.6,104.4,46z
	 M99.5,34.1c0.2-3.7-0.1-7.2-1.8-10.5c-1.2-2.3-2.9-3.9-5.6-3.9c-2.8,0-4.5,1.7-5.7,4c-1.4,2.9-1.9,6-2.1,9.1
	c-0.1,1.2,0.4,1.4,1.5,1.4c4.2,0,8.4,0,12.6,0C98.7,34.2,99,34.1,99.5,34.1z M184.4,20.5c0,0-0.1-0.1-0.1-0.1L184.4,20.5
	c-1.6-1.8-3.6-2.9-6.5-3c-4.8-0.1-7.7,2.5-9.8,6.4c-0.2,0-0.3-0.1-0.5-0.1c0-1.5,0-3,0-4.6c0-1.1-0.4-1.5-1.5-1.5
	c-2.7,0.2-5.4,0.2-8.1,0.3c-0.7,0-1.4-0.1-1.5,1c0,1,0.5,1.1,1.3,1.2c2.5,0.3,3.5,1.2,3.6,3.6c0.1,8.7,0.1,17.4,0,26.1
	c0,2.4-1.1,3.2-3.4,3.5c-0.3,0-0.7,0-0.9,0.2c-0.4,0.3-0.7,0.7-1,1.1c0.4,0.3,0.7,0.8,1.1,0.8c1.1,0.1,2.3,0,3.5,0
	c3.9,0,7.8,0,11.7,0c0.4,0,0.8-0.5,1.2-0.8c-0.5,0-0.7-0.5-1.1-0.8c-0.3-0.2-0.8-0.1-1.2-0.2c-1.8-0.2-2.6-0.9-2.9-2.7
	c-0.2-1-0.3-2.1-0.3-3.1c0.1-6,0.1-11.9,0.3-17.9c0.1-2.8,1.1-5.4,3.1-7.5c2.3-2.5,5.4-2.5,7.4-0.7c0,0.1,0.1,0.2,0.2,0.3
	c0.5,0.6,0.4,0.5,0.7,0.8c1.8,2,3.5,2.3,4.6,0.9C185.5,22.4,184.9,21.1,184.4,20.5z M180,19.7c0,0-0.1,0.1-0.2,0.2
	C179.9,19.7,180,19.6,180,19.7l0.7,0C180.3,19.7,180,19.7,180,19.7z M213.2,28c-0.7-1.7-1.5-3.3-2.5-4.7c-0.1-0.1-0.1-0.2-0.2-0.3
	c-2.2-3-5.5-4.9-8.9-5.4h-0.1c-0.3,0-0.5-0.1-0.8-0.1c-0.1,0-0.2,0-0.3,0c-0.2,0-0.3,0-0.5,0s-0.3,0-0.5,0c-0.1,0-0.2,0-0.3,0
	c-0.3,0-0.5,0-0.8,0.1h-0.1c-3.5,0.5-6.7,2.4-8.9,5.4c-0.1,0.1-0.1,0.2-0.2,0.3c-1,1.4-1.9,3-2.5,4.7c-1.6,4-1.7,8.2-1.4,12.4
	c0,0.5,0.1,1,0.2,1.5c0.2,1.2,0.4,2.3,0.9,3.4c0.7,1.7,1.5,3.3,2.5,4.7c0.1,0.1,0.1,0.2,0.2,0.3c2.2,3,5.8,4.9,9.3,5.4h0.1
	c0.3,0,0.5,0.1,0.8,0.1c0.1,0,0.2,0,0.3,0c0.2,0,0.3,0,0.5,0s0.3,0,0.5,0c0.1,0,0.2,0,0.3,0c0.3,0,0.5,0,0.8-0.1h0.1
	c3.5-0.5,7.1-2.4,9.3-5.4c0.1-0.1,0.1-0.2,0.2-0.3c1-1.4,1.9-3,2.5-4.7c0.4-1.1,0.7-2.3,0.9-3.4c0.1-0.5,0.2-1,0.2-1.5
	C214.9,36.2,214.8,32,213.2,28z M207.4,40.6L207.4,40.6c-0.1,1-0.2,2-0.3,3c0,0.1,0,0.2,0,0.2c-0.3,1.9-0.8,3.8-1.7,5.6
	c-1.1,2.3-2.8,3.8-5.4,4c-2.6-0.1-4.3-1.7-5.4-4c-0.9-1.8-1.4-3.7-1.7-5.6c0,0,0-0.1,0-0.2c-0.1-1-0.2-2-0.3-2.9l0,0
	c-0.7-5.1,0.3-10.3,0.4-11c0.3-1.9,0.8-3.8,1.7-5.6c1.1-2.3,2.8-3.8,5.4-4c2.6,0.1,4.3,1.7,5.4,4c0.9,1.8,1.4,3.7,1.7,5.6
	C207.1,30.3,208.1,35.4,207.4,40.6z M1.5,89.8h12.2c0.8,0,1.7,0.1,2.7,0.3c1,0.2,1.9,0.6,2.7,1.1c0.8,0.6,1.5,1.4,2.1,2.5
	c0.6,1.1,0.8,2.4,0.8,4.2c0,2.5-0.8,4.5-2.3,5.8c-1.6,1.4-3.8,2.1-6.7,2.1H3.3v12.8H1.5V89.8z M3.3,104.2h10.1
	c1.3,0,2.4-0.2,3.3-0.6c0.9-0.4,1.6-0.9,2.2-1.5c0.5-0.6,0.9-1.3,1.2-2.1c0.2-0.8,0.4-1.5,0.4-2.3c0-0.5-0.1-1.2-0.2-1.9
	c-0.2-0.7-0.5-1.4-1-2.1c-0.5-0.7-1.2-1.3-2-1.7c-0.9-0.5-2-0.7-3.5-0.7H3.3V104.2z M53.3,104.2c0,2.1-0.3,4.1-0.9,5.9
	c-0.6,1.8-1.5,3.4-2.7,4.8s-2.6,2.4-4.3,3.2c-1.7,0.8-3.6,1.2-5.8,1.2c-2.1,0-4.1-0.4-5.8-1.2c-1.7-0.8-3.1-1.8-4.3-3.2
	s-2.1-3-2.7-4.8c-0.6-1.8-0.9-3.8-0.9-5.9c0-2.1,0.3-4.1,0.9-5.9c0.6-1.8,1.5-3.4,2.7-4.8s2.6-2.4,4.3-3.2c1.7-0.8,3.6-1.2,5.8-1.2
	c2.1,0,4.1,0.4,5.8,1.2c1.7,0.8,3.1,1.8,4.3,3.2s2.1,3,2.7,4.8C53,100.1,53.3,102.1,53.3,104.2z M27.8,104.2c0,1.9,0.3,3.6,0.8,5.2
	c0.5,1.6,1.3,3.1,2.3,4.3c1,1.2,2.3,2.2,3.7,2.9c1.5,0.7,3.2,1.1,5,1.1c1.9,0,3.5-0.4,5-1.1s2.7-1.7,3.7-2.9c1-1.2,1.8-2.6,2.3-4.3
	c0.5-1.6,0.8-3.4,0.8-5.2c0-1.9-0.3-3.6-0.8-5.2c-0.5-1.6-1.3-3.1-2.3-4.3c-1-1.2-2.3-2.2-3.7-2.9s-3.1-1.1-5-1.1
	c-1.9,0-3.6,0.4-5,1.1c-1.5,0.7-2.7,1.7-3.7,2.9c-1,1.2-1.8,2.7-2.3,4.3C28.1,100.6,27.8,102.4,27.8,104.2z M77.9,98
	c-0.1-1.2-0.3-2.3-0.8-3.2c-0.5-0.9-1.1-1.7-1.9-2.3s-1.8-1.1-2.9-1.4c-1.1-0.3-2.3-0.5-3.6-0.5c-0.8,0-1.7,0.1-2.6,0.3
	s-1.8,0.5-2.6,1c-0.8,0.5-1.4,1.1-2,1.9s-0.8,1.8-0.8,3c0,1.2,0.3,2.1,0.8,2.8c0.6,0.7,1.3,1.3,2.2,1.8c0.9,0.4,2,0.8,3.1,1.1
	c1.2,0.3,2.4,0.5,3.6,0.8c1.2,0.2,2.4,0.5,3.6,0.9c1.2,0.3,2.2,0.8,3.1,1.4c0.9,0.6,1.7,1.3,2.2,2.3c0.6,0.9,0.8,2.1,0.8,3.5
	c0,1.5-0.3,2.8-1,3.8c-0.6,1-1.5,1.9-2.4,2.5c-1,0.6-2.1,1.1-3.3,1.4c-1.2,0.3-2.3,0.4-3.4,0.4c-1.7,0-3.3-0.2-4.8-0.5
	c-1.5-0.4-2.8-1-3.9-1.8c-1.1-0.8-2-1.9-2.6-3.2c-0.6-1.3-0.9-2.9-0.9-4.7h1.8c-0.1,1.6,0.1,2.9,0.7,4c0.5,1.1,1.3,2,2.2,2.7
	c1,0.7,2.1,1.2,3.4,1.5c1.3,0.3,2.6,0.5,4.1,0.5c0.9,0,1.8-0.1,2.8-0.3c1-0.2,1.9-0.6,2.7-1.1c0.8-0.5,1.5-1.2,2.1-2
	c0.5-0.8,0.8-1.9,0.8-3.1c0-1.2-0.3-2.2-0.8-3c-0.6-0.8-1.3-1.4-2.2-1.9c-0.9-0.5-2-0.8-3.1-1.1s-2.4-0.5-3.6-0.8
	c-1.2-0.2-2.4-0.5-3.6-0.8s-2.2-0.8-3.1-1.3c-0.9-0.5-1.7-1.3-2.2-2.1c-0.6-0.9-0.8-2-0.8-3.4s0.3-2.5,0.9-3.5
	c0.6-1,1.3-1.8,2.3-2.4s2-1,3.1-1.3c1.2-0.3,2.3-0.4,3.4-0.4c1.5,0,2.9,0.2,4.2,0.5s2.4,0.9,3.4,1.6c1,0.7,1.8,1.6,2.4,2.8
	c0.6,1.1,0.9,2.5,1,4.1H77.9z M82.5,91.4v-1.5h22v1.5H94.3v27.2h-1.8V91.4H82.5z M105,106.9h8.6v1.5H105V106.9z M131.4,89.8h-1.9
	l-11.6,28.7h1.9l3.7-9.2h13.8l3.6,9.2h1.9L131.4,89.8z M124,107.8l6.4-16.3h0.1l6.2,16.3H124z M146.8,89.8H159
	c0.8,0,1.7,0.1,2.7,0.3c1,0.2,1.9,0.6,2.7,1.1c0.8,0.6,1.5,1.4,2.1,2.5c0.6,1.1,0.8,2.4,0.8,4.2c0,2.5-0.8,4.5-2.3,5.8
	c-1.6,1.4-3.8,2.1-6.7,2.1h-9.8v12.8h-1.8V89.8z M148.6,104.2h10.1c1.3,0,2.4-0.2,3.3-0.6c0.9-0.4,1.6-0.9,2.2-1.5
	c0.5-0.6,0.9-1.3,1.2-2.1c0.2-0.8,0.4-1.5,0.4-2.3c0-0.5-0.1-1.2-0.2-1.9c-0.2-0.7-0.5-1.4-1-2.1c-0.5-0.7-1.2-1.3-2-1.7
	c-0.9-0.5-2-0.7-3.5-0.7h-10.3V104.2z M198.6,104.2c0,2.1-0.3,4.1-0.9,5.9c-0.6,1.8-1.5,3.4-2.7,4.8s-2.6,2.4-4.3,3.2
	c-1.7,0.8-3.6,1.2-5.8,1.2c-2.1,0-4.1-0.4-5.8-1.2c-1.7-0.8-3.1-1.8-4.3-3.2s-2.1-3-2.7-4.8c-0.6-1.8-0.9-3.8-0.9-5.9
	c0-2.1,0.3-4.1,0.9-5.9c0.6-1.8,1.5-3.4,2.7-4.8s2.6-2.4,4.3-3.2c1.7-0.8,3.6-1.2,5.8-1.2c2.1,0,4.1,0.4,5.8,1.2
	c1.7,0.8,3.1,1.8,4.3,3.2s2.1,3,2.7,4.8C198.3,100.1,198.6,102.1,198.6,104.2z M173,104.2c0,1.9,0.3,3.6,0.8,5.2
	c0.5,1.6,1.3,3.1,2.3,4.3c1,1.2,2.3,2.2,3.7,2.9c1.5,0.7,3.2,1.1,5,1.1c1.9,0,3.5-0.4,5-1.1s2.7-1.7,3.7-2.9c1-1.2,1.8-2.6,2.3-4.3
	c0.5-1.6,0.8-3.4,0.8-5.2c0-1.9-0.3-3.6-0.8-5.2c-0.5-1.6-1.3-3.1-2.3-4.3c-1-1.2-2.3-2.2-3.7-2.9s-3.1-1.1-5-1.1
	c-1.9,0-3.6,0.4-5,1.1c-1.5,0.7-2.7,1.7-3.7,2.9c-1,1.2-1.8,2.7-2.3,4.3C173.3,100.6,173,102.4,173,104.2z M203.3,104.2
	c0-2.1,0.3-4.1,0.9-5.9c0.6-1.8,1.5-3.4,2.7-4.8c1.2-1.4,2.6-2.4,4.3-3.2c1.7-0.8,3.6-1.2,5.8-1.2c1.7,0,3.2,0.2,4.4,0.7
	c1.2,0.4,2.3,1,3.1,1.7c0.8,0.7,1.5,1.4,2.1,2.2c0.5,0.8,0.9,1.5,1.2,2.2c0.3,0.7,0.5,1.3,0.6,1.8c0.1,0.5,0.2,0.8,0.2,0.8h-1.8
	c-0.2-1.2-0.6-2.3-1.2-3.2c-0.6-1-1.3-1.8-2.2-2.4c-0.9-0.7-1.9-1.2-3-1.5c-1.1-0.3-2.2-0.5-3.4-0.5c-1.9,0-3.6,0.4-5,1.1
	c-1.5,0.7-2.7,1.7-3.7,2.9c-1,1.2-1.8,2.7-2.3,4.3c-0.5,1.6-0.8,3.4-0.8,5.2c0,1.9,0.3,3.6,0.8,5.2c0.5,1.6,1.3,3.1,2.3,4.3
	c1,1.2,2.3,2.2,3.7,2.9c1.5,0.7,3.2,1.1,5,1.1c1.4,0,2.7-0.3,3.9-0.9c1.2-0.6,2.3-1.3,3.2-2.3c0.9-1,1.6-2.1,2.2-3.3
	c0.5-1.2,0.9-2.5,0.9-3.9h1.8c-0.2,1.7-0.6,3.3-1.3,4.8s-1.6,2.7-2.6,3.8c-1.1,1.1-2.3,1.9-3.7,2.5s-2.9,0.9-4.5,0.9
	c-2.1,0-4.1-0.4-5.8-1.2c-1.7-0.8-3.1-1.8-4.3-3.2c-1.2-1.4-2.1-3-2.7-4.8C203.6,108.3,203.3,106.3,203.3,104.2z M242.5,89.8h1.9
	l11.4,28.7h-1.9l-3.6-9.2h-13.8l-3.7,9.2h-1.9L242.5,89.8z M249.7,107.8l-6.2-16.3h-0.1l-6.4,16.3H249.7z M259.8,89.8h1.8V117h16.3
	v1.5h-18.1V89.8z M297.3,89.8h2l-11.6,16.7v12H286v-12l-11.5-16.7h2l10.4,15.2L297.3,89.8z M303,89.8h12.2c0.8,0,1.7,0.1,2.7,0.3
	s1.9,0.6,2.7,1.1c0.8,0.6,1.6,1.4,2.1,2.5s0.8,2.4,0.8,4.2c0,2.5-0.8,4.5-2.3,5.8s-3.8,2.1-6.7,2.1h-9.8v12.8H303V89.8z
	 M304.7,104.2h10.1c1.3,0,2.4-0.2,3.3-0.6c0.9-0.4,1.6-0.9,2.2-1.5c0.5-0.6,0.9-1.3,1.2-2.1c0.2-0.8,0.4-1.5,0.4-2.3
	c0-0.5-0.1-1.2-0.2-1.9s-0.5-1.4-1-2.1c-0.5-0.7-1.2-1.3-2-1.7s-2-0.7-3.5-0.7h-10.3V104.2z M325.6,91.4v-1.5h22v1.5h-10.1v27.2
	h-1.8V91.4H325.6z M351.6,89.8h1.8v28.7h-1.8V89.8z M359.3,104.2c0-2.1,0.3-4.1,0.9-5.9s1.5-3.4,2.7-4.8c1.2-1.4,2.6-2.4,4.3-3.2
	c1.7-0.8,3.6-1.2,5.8-1.2c1.7,0,3.2,0.2,4.4,0.7c1.2,0.4,2.3,1,3.1,1.7c0.8,0.7,1.5,1.4,2.1,2.2c0.5,0.8,0.9,1.5,1.2,2.2
	c0.3,0.7,0.5,1.3,0.6,1.8s0.2,0.8,0.2,0.8h-1.8c-0.2-1.2-0.6-2.3-1.2-3.2c-0.6-1-1.3-1.8-2.2-2.4c-0.9-0.7-1.9-1.2-3-1.5
	c-1.1-0.3-2.2-0.5-3.4-0.5c-1.9,0-3.6,0.4-5,1.1c-1.5,0.7-2.7,1.7-3.7,2.9c-1,1.2-1.8,2.7-2.3,4.3c-0.5,1.6-0.8,3.4-0.8,5.2
	c0,1.9,0.3,3.6,0.8,5.2c0.5,1.6,1.3,3.1,2.3,4.3c1,1.2,2.3,2.2,3.7,2.9c1.5,0.7,3.2,1.1,5,1.1c1.4,0,2.7-0.3,3.9-0.9
	c1.2-0.6,2.3-1.3,3.2-2.3c0.9-1,1.6-2.1,2.2-3.3s0.9-2.5,0.9-3.9h1.8c-0.2,1.7-0.6,3.3-1.3,4.8c-0.7,1.4-1.6,2.7-2.6,3.8
	c-1.1,1.1-2.3,1.9-3.7,2.5c-1.4,0.6-2.9,0.9-4.5,0.9c-2.1,0-4.1-0.4-5.8-1.2c-1.7-0.8-3.1-1.8-4.3-3.2c-1.2-1.4-2.1-3-2.7-4.8
	C359.6,108.3,359.3,106.3,359.3,104.2z M422.6,98c-0.1-1.2-0.3-2.3-0.8-3.2s-1.1-1.7-1.9-2.3c-0.8-0.6-1.8-1.1-2.9-1.4
	c-1.1-0.3-2.3-0.5-3.6-0.5c-0.8,0-1.7,0.1-2.6,0.3c-0.9,0.2-1.8,0.5-2.6,1c-0.8,0.5-1.4,1.1-2,1.9c-0.5,0.8-0.8,1.8-0.8,3
	c0,1.2,0.3,2.1,0.8,2.8s1.3,1.3,2.2,1.8c0.9,0.4,2,0.8,3.1,1.1c1.2,0.3,2.4,0.5,3.6,0.8c1.2,0.2,2.4,0.5,3.6,0.9
	c1.2,0.3,2.2,0.8,3.1,1.4c0.9,0.6,1.7,1.3,2.2,2.3c0.6,0.9,0.8,2.1,0.8,3.5c0,1.5-0.3,2.8-1,3.8c-0.6,1-1.5,1.9-2.4,2.5
	c-1,0.6-2.1,1.1-3.3,1.4c-1.2,0.3-2.3,0.4-3.4,0.4c-1.7,0-3.3-0.2-4.8-0.5c-1.5-0.4-2.8-1-3.9-1.8c-1.1-0.8-2-1.9-2.6-3.2
	c-0.6-1.3-0.9-2.9-0.9-4.7h1.8c-0.1,1.6,0.1,2.9,0.7,4c0.5,1.1,1.3,2,2.2,2.7c1,0.7,2.1,1.2,3.4,1.5c1.3,0.3,2.6,0.5,4.1,0.5
	c0.9,0,1.8-0.1,2.8-0.3c1-0.2,1.9-0.6,2.7-1.1c0.8-0.5,1.5-1.2,2.1-2c0.5-0.8,0.8-1.9,0.8-3.1c0-1.2-0.3-2.2-0.8-3
	c-0.6-0.8-1.3-1.4-2.2-1.9c-0.9-0.5-2-0.8-3.1-1.1c-1.2-0.3-2.4-0.5-3.6-0.8c-1.2-0.2-2.4-0.5-3.6-0.8s-2.2-0.8-3.1-1.3
	c-0.9-0.5-1.7-1.3-2.2-2.1c-0.6-0.9-0.8-2-0.8-3.4s0.3-2.5,0.9-3.5c0.6-1,1.3-1.8,2.3-2.4c0.9-0.6,2-1,3.1-1.3s2.3-0.4,3.4-0.4
	c1.5,0,2.9,0.2,4.2,0.5c1.3,0.3,2.4,0.9,3.4,1.6c1,0.7,1.8,1.6,2.4,2.8c0.6,1.1,0.9,2.5,1,4.1H422.6z M433,89.8v17.2
	c0,0.6,0,1.2,0.1,2c0.1,0.8,0.2,1.5,0.4,2.3c0.2,0.8,0.5,1.6,0.9,2.3c0.4,0.8,0.9,1.4,1.6,2.1c0.7,0.6,1.5,1.1,2.5,1.4
	c1,0.4,2.2,0.5,3.6,0.5c1.8,0,3.3-0.2,4.4-0.7s2.2-1.2,2.9-2.1c0.7-0.9,1.3-2,1.6-3.4c0.3-1.3,0.5-2.8,0.5-4.4V89.8h1.8v17.2
	c0,1.7-0.2,3.3-0.5,4.8s-1,2.8-1.8,3.9c-0.9,1.1-2,2-3.4,2.6c-1.4,0.6-3.2,0.9-5.4,0.9c-1.7,0-3.1-0.2-4.3-0.6s-2.2-1-3-1.7
	c-0.8-0.7-1.4-1.5-1.9-2.4c-0.5-0.9-0.8-1.8-1-2.7s-0.4-1.8-0.4-2.6c-0.1-0.8-0.1-1.6-0.1-2.2V89.8H433z M460.2,89.8h11.5
	c1.7,0,3.2,0.2,4.3,0.6c1.2,0.4,2.1,1,2.8,1.7c0.7,0.7,1.2,1.5,1.5,2.4s0.5,1.8,0.5,2.7c0,0.8-0.1,1.5-0.4,2.2
	c-0.3,0.7-0.7,1.3-1.1,1.9c-0.5,0.5-1.1,1-1.8,1.3c-0.7,0.4-1.4,0.6-2.3,0.7l0.1,0.1c0.2,0,0.6,0.1,1.3,0.2c0.7,0.2,1.4,0.5,2.2,1.1
	c0.8,0.5,1.4,1.2,2.1,2.2c0.6,0.9,0.9,2.1,0.9,3.6c0,1.3-0.2,2.5-0.7,3.5c-0.5,1-1.2,1.8-2,2.5c-0.9,0.7-1.9,1.2-3.2,1.5
	c-1.2,0.3-2.6,0.5-4.1,0.5h-11.5V89.8z M471.8,102.9c2.4,0,4.3-0.5,5.5-1.6c1.2-1.1,1.8-2.5,1.8-4.3c0-1-0.2-1.9-0.6-2.6
	s-0.9-1.3-1.6-1.7s-1.4-0.8-2.3-0.9c-0.9-0.2-1.8-0.3-2.8-0.3H462v11.5H471.8z M471.8,117c2.6,0,4.6-0.5,6.1-1.6
	c1.5-1.1,2.2-2.7,2.2-4.9c0-1.2-0.3-2.2-0.8-3c-0.5-0.8-1.2-1.4-2-1.9c-0.8-0.5-1.7-0.8-2.7-0.9c-1-0.2-1.9-0.3-2.9-0.3H462V117
	H471.8z M484.8,89.8h1.8l7.5,26.9h0.1l7.6-26.9h2.2l7.7,26.9h0.1l7.4-26.9h1.9l-8.3,28.7h-2l-7.9-27.2h-0.1l-7.8,27.2h-2L484.8,89.8
	z M533.2,89.8h1.9l11.4,28.7h-1.9l-3.6-9.2h-13.8l-3.7,9.2h-1.9L533.2,89.8z M540.4,107.8l-6.2-16.3h-0.1l-6.4,16.3H540.4z
	 M567,89.8h2l-11.6,16.7v12h-1.8v-12l-11.5-16.7h2l10.4,15.2L567,89.8z"/>
</svg>
